<?xml version="1.0" standalone="no"?>
<!DOCTYPE svg PUBLIC "-//W3C//DTD SVG 20010904//EN"
 "http://www.w3.org/TR/2001/REC-SVG-20010904/DTD/svg10.dtd">
<svg version="1.0" xmlns="http://www.w3.org/2000/svg"
 width="920.000000pt" height="920.000000pt" viewBox="0 0 920.000000 920.000000"
 preserveAspectRatio="xMidYMid meet">
<metadata>
Created by potrace 1.14, written by Peter Selinger 2001-2017
</metadata>
<g transform="translate(0.000000,920.000000) scale(0.100000,-0.100000)"
fill="#000000" stroke="none">
<path d="M3879 7780 c-231 -29 -451 -138 -616 -306 -122 -123 -201 -250 -258
-414 l-22 -65 -1219 -5 -1219 -5 -41 -22 c-96 -51 -148 -137 -148 -243 0 -103
51 -185 148 -238 29 -16 124 -17 1254 -22 l1223 -5 28 -80 c54 -157 141 -293
263 -411 210 -204 454 -304 738 -304 291 0 551 111 757 323 120 124 196 245
247 399 l25 73 1813 5 c1688 5 1815 6 1844 22 97 53 148 135 148 238 0 106
-52 192 -148 243 l-41 22 -1809 5 -1808 5 -23 65 c-56 166 -140 299 -269 425
-147 143 -325 240 -515 280 -89 18 -266 26 -352 15z m296 -552 c218 -72 365
-273 365 -498 0 -235 -130 -422 -355 -511 -51 -19 -78 -23 -175 -23 -97 0
-124 4 -175 23 -154 61 -270 175 -327 323 -26 67 -36 224 -18 299 47 204 225
372 433 409 70 12 179 3 252 -22z"/>
<path d="M6930 5663 c-374 -20 -712 -239 -884 -573 -24 -47 -54 -115 -66 -152
l-23 -68 -2701 -2 -2701 -3 -47 -23 c-55 -27 -113 -88 -136 -141 -20 -47 -20
-155 0 -202 23 -53 81 -114 136 -141 l47 -23 2701 -3 2701 -2 23 -68 c52 -154
140 -294 259 -413 211 -210 452 -310 746 -310 66 0 154 7 195 15 377 73 681
338 811 708 l23 67 316 3 c307 3 316 4 362 26 55 27 113 88 136 141 20 47 20
155 0 202 -23 53 -81 114 -136 141 -46 22 -55 23 -362 26 l-315 3 -24 67 c-55
161 -136 289 -260 413 -217 218 -499 328 -801 312z m189 -548 c94 -25 162 -65
238 -141 216 -214 216 -534 0 -748 -109 -109 -220 -156 -372 -156 -150 0 -262
47 -371 155 -113 111 -157 217 -157 375 0 158 44 264 157 375 73 72 146 116
233 140 65 18 206 18 272 0z"/>
<path d="M2216 3524 c-259 -51 -500 -203 -655 -413 -60 -81 -134 -225 -158
-308 l-18 -63 -412 0 c-382 0 -415 -1 -456 -19 -89 -38 -146 -115 -163 -218
-15 -94 53 -214 151 -266 39 -21 51 -22 460 -25 l420 -3 19 -62 c49 -155 168
-343 289 -453 125 -115 295 -207 462 -250 84 -22 123 -26 245 -27 195 -2 315
25 479 105 244 120 443 345 532 602 l28 81 2608 5 2608 5 40 22 c98 52 166
172 151 266 -17 103 -74 180 -163 218 -44 19 -112 19 -2643 19 l-2598 0 -23
68 c-104 318 -364 579 -678 681 -155 51 -374 65 -525 35z m306 -525 c187 -39
355 -197 404 -383 23 -84 18 -229 -10 -309 -113 -320 -473 -456 -771 -291
-113 63 -215 198 -249 330 -97 375 246 732 626 653z"/>
</g>
</svg>
